<svg width="24" height="22" viewBox="0 0 24 22" fill="none" xmlns="http://www.w3.org/2000/svg">
<path d="M12 0.435059C5.37321 0.435059 0 5.20522 0 11.0883C0 16.9713 5.37321 21.7415 12 21.7415C18.6268 21.7415 24 16.9713 24 11.0883C24 5.20522 18.6268 0.435059 12 0.435059ZM17.767 8.46538C17.775 8.57715 17.775 8.69367 17.775 8.80781C17.775 12.2986 14.7804 16.3197 9.30804 16.3197C7.62054 16.3197 6.05625 15.8846 4.73839 15.1355C4.97946 15.1593 5.20982 15.1688 5.45625 15.1688C6.84911 15.1688 8.12946 14.7503 9.15 14.0417C7.84286 14.0179 6.74464 13.2569 6.36964 12.2106C6.82768 12.2701 7.24018 12.2701 7.71161 12.1631C7.03855 12.0417 6.43359 11.7172 5.99951 11.2447C5.56542 10.7722 5.32898 10.1808 5.33036 9.57113V9.53784C5.72411 9.73521 6.1875 9.85648 6.67232 9.87313C6.26476 9.63199 5.93051 9.3053 5.69923 8.92202C5.46794 8.53874 5.34676 8.11072 5.34643 7.6759C5.34643 7.18367 5.49107 6.73424 5.75089 6.34425C6.49795 7.16069 7.43017 7.82843 8.48696 8.30408C9.54375 8.77972 10.7014 9.05263 11.8848 9.10505C11.4643 7.3097 12.975 5.85678 14.7911 5.85678C15.6482 5.85678 16.4196 6.17542 16.9634 6.68906C17.6357 6.57729 18.2786 6.35377 18.8518 6.05414C18.6295 6.66528 18.1634 7.18129 17.5446 7.50707C18.1446 7.45 18.7232 7.30257 19.2589 7.09569C18.8545 7.62359 18.3482 8.09205 17.767 8.46538Z" fill="#F2F2F2"/>
</svg>
