<svg width="24" height="22" viewBox="0 0 24 22" fill="none" xmlns="http://www.w3.org/2000/svg">
<path d="M12 0.435059C5.3725 0.435059 0 5.20458 0 11.0883C0 16.9719 5.3725 21.7415 12 21.7415C18.6275 21.7415 24 16.9719 24 11.0883C24 5.20458 18.6275 0.435059 12 0.435059ZM9.0625 15.5038H6.6325V8.56145H9.0625V15.5038ZM7.8325 7.70919C7.065 7.70919 6.56875 7.22647 6.56875 6.62945C6.56875 6.02022 7.08 5.55192 7.86375 5.55192C8.6475 5.55192 9.1275 6.02022 9.1425 6.62945C9.1425 7.22647 8.6475 7.70919 7.8325 7.70919ZM17.9375 15.5038H15.5075V11.6564C15.5075 10.7609 15.155 10.1528 14.2763 10.1528C13.605 10.1528 13.2063 10.5645 13.03 10.9606C12.965 11.1016 12.9488 11.3013 12.9488 11.5V15.5027H10.5175V10.7753C10.5175 9.90864 10.4862 9.184 10.4537 8.56034H12.565L12.6763 9.52468H12.725C13.045 9.07192 13.8288 8.40387 15.14 8.40387C16.7388 8.40387 17.9375 9.35489 17.9375 11.399V15.5038Z" fill="#F2F2F2"/>
</svg>
